<svg width="41" height="41" viewBox="0 0 41 41" fill="none" xmlns="http://www.w3.org/2000/svg">
<path d="M5.58625 11.89L20.5 20.5171L35.4137 11.89M20.5 37.72V20.5M35.875 27.3333V13.6667C35.8744 13.0675 35.7162 12.479 35.4164 11.9603C35.1165 11.4416 34.6856 11.0108 34.1667 10.7112L22.2083 3.87791C21.6889 3.57804 21.0998 3.42017 20.5 3.42017C19.9003 3.42017 19.3111 3.57804 18.7917 3.87791L6.83333 10.7112C6.31445 11.0108 5.88347 11.4416 5.58362 11.9603C5.28378 12.479 5.12561 13.0675 5.125 13.6667V27.3333C5.12561 27.9325 5.28378 28.5209 5.58362 29.0397C5.88347 29.5584 6.31445 29.9892 6.83333 30.2887L18.7917 37.1221C19.3111 37.422 19.9003 37.5798 20.5 37.5798C21.0998 37.5798 21.6889 37.422 22.2083 37.1221L34.1667 30.2887C34.6856 29.9892 35.1165 29.5584 35.4164 29.0397C35.7162 28.5209 35.8744 27.9325 35.875 27.3333Z" stroke="#854D0E" stroke-width="2.5" stroke-linecap="round" stroke-linejoin="round"/>
</svg>
