<svg width="63" height="63" viewBox="0 0 63 63" fill="none" xmlns="http://www.w3.org/2000/svg">
<path d="M2.625 2.625H13.125L20.16 37.7738C20.4 38.9823 21.0575 40.0679 22.0173 40.8405C22.9771 41.6132 24.1781 42.0236 25.41 42H50.925C52.1569 42.0236 53.3579 41.6132 54.3177 40.8405C55.2775 40.0679 55.935 38.9823 56.175 37.7738L60.375 15.75H15.75M26.25 55.125C26.25 56.5747 25.0747 57.75 23.625 57.75C22.1753 57.75 21 56.5747 21 55.125C21 53.6753 22.1753 52.5 23.625 52.5C25.0747 52.5 26.25 53.6753 26.25 55.125ZM55.125 55.125C55.125 56.5747 53.9497 57.75 52.5 57.75C51.0503 57.75 49.875 56.5747 49.875 55.125C49.875 53.6753 51.0503 52.5 52.5 52.5C53.9497 52.5 55.125 53.6753 55.125 55.125Z" stroke="#F3F3F3" stroke-width="4" stroke-linecap="round" stroke-linejoin="round"/>
</svg>
