<svg width="64" height="64" viewBox="0 0 64 64" fill="none" xmlns="http://www.w3.org/2000/svg">
<path d="M29.3333 10.6667H10.6667C9.25218 10.6667 7.89563 11.2286 6.89543 12.2288C5.89524 13.229 5.33334 14.5855 5.33334 16V53.3334C5.33334 54.7478 5.89524 56.1044 6.89543 57.1046C7.89563 58.1048 9.25218 58.6667 10.6667 58.6667H48C49.4145 58.6667 50.771 58.1048 51.7712 57.1046C52.7714 56.1044 53.3333 54.7478 53.3333 53.3334V34.6667M49.3333 6.66668C50.3942 5.60582 51.833 5.00983 53.3333 5.00983C54.8336 5.00983 56.2725 5.60582 57.3333 6.66668C58.3942 7.72755 58.9902 9.16639 58.9902 10.6667C58.9902 12.167 58.3942 13.6058 57.3333 14.6667L32 40L21.3333 42.6667L24 32L49.3333 6.66668Z" stroke="#F5F5F5" stroke-width="3" stroke-linecap="round" stroke-linejoin="round"/>
</svg>
