<svg width="72" height="72" viewBox="0 0 72 72" fill="none" xmlns="http://www.w3.org/2000/svg">
<path d="M9 18H15M15 18H63M15 18V60C15 61.5913 15.6321 63.1174 16.7574 64.2426C17.8826 65.3679 19.4087 66 21 66H51C52.5913 66 54.1174 65.3679 55.2426 64.2426C56.3679 63.1174 57 61.5913 57 60V18M24 18V12C24 10.4087 24.6321 8.88258 25.7574 7.75736C26.8826 6.63214 28.4087 6 30 6H42C43.5913 6 45.1174 6.63214 46.2426 7.75736C47.3679 8.88258 48 10.4087 48 12V18" stroke="#EE4444" stroke-width="4" stroke-linecap="round" stroke-linejoin="round"/>
</svg>
