<svg width="67" height="65" viewBox="0 0 67 65" fill="none" xmlns="http://www.w3.org/2000/svg">
<path d="M13.9583 56.875H53.0417C56.1253 56.875 58.625 54.4499 58.625 51.4583V13.5417C58.625 10.5501 56.1253 8.125 53.0417 8.125H13.9583C10.8747 8.125 8.375 10.5501 8.375 13.5417V51.4583C8.375 54.4499 10.8747 56.875 13.9583 56.875ZM13.9583 56.875L44.6667 27.0833L58.625 40.625M27.9167 23.0208C27.9167 25.2645 26.0419 27.0833 23.7292 27.0833C21.4165 27.0833 19.5417 25.2645 19.5417 23.0208C19.5417 20.7772 21.4165 18.9583 23.7292 18.9583C26.0419 18.9583 27.9167 20.7772 27.9167 23.0208Z" stroke="white" stroke-width="4" stroke-linecap="round" stroke-linejoin="round"/>
</svg>
