<svg width="69" height="67" viewBox="0 0 69 67" fill="none" xmlns="http://www.w3.org/2000/svg">
<path d="M20.125 30.7083V19.5416C20.125 15.8397 21.6395 12.2893 24.3353 9.67161C27.0312 7.05392 30.6875 5.58331 34.5 5.58331C38.3125 5.58331 41.9688 7.05392 44.6647 9.67161C47.3605 12.2893 48.875 15.8397 48.875 19.5416V30.7083M14.375 30.7083H54.625C57.8006 30.7083 60.375 33.2081 60.375 36.2916V55.8333C60.375 58.9169 57.8006 61.4166 54.625 61.4166H14.375C11.1994 61.4166 8.625 58.9169 8.625 55.8333V36.2916C8.625 33.2081 11.1994 30.7083 14.375 30.7083Z" stroke="#B3B3B3" stroke-width="4" stroke-linecap="round" stroke-linejoin="round"/>
</svg>
