<svg width="63" height="63" viewBox="0 0 63 63" fill="none" xmlns="http://www.w3.org/2000/svg">
<path d="M51.45 55.125L34.9125 38.5875C33.6 39.6375 32.0906 40.4688 30.3844 41.0813C28.6781 41.6938 26.8625 42 24.9375 42C20.1687 42 16.1328 40.3484 12.8297 37.0453C9.52656 33.7422 7.875 29.7062 7.875 24.9375C7.875 20.1687 9.52656 16.1328 12.8297 12.8297C16.1328 9.52656 20.1687 7.875 24.9375 7.875C29.7062 7.875 33.7422 9.52656 37.0453 12.8297C40.3484 16.1328 42 20.1687 42 24.9375C42 26.8625 41.6938 28.6781 41.0813 30.3844C40.4688 32.0906 39.6375 33.6 38.5875 34.9125L55.125 51.45L51.45 55.125ZM24.9375 36.75C28.2188 36.75 31.0078 35.6016 33.3047 33.3047C35.6016 31.0078 36.75 28.2188 36.75 24.9375C36.75 21.6562 35.6016 18.8672 33.3047 16.5703C31.0078 14.2734 28.2188 13.125 24.9375 13.125C21.6562 13.125 18.8672 14.2734 16.5703 16.5703C14.2734 18.8672 13.125 21.6562 13.125 24.9375C13.125 28.2188 14.2734 31.0078 16.5703 33.3047C18.8672 35.6016 21.6562 36.75 24.9375 36.75Z" fill="#FEF7FF"/>
</svg>
